<?xml version="1.0" encoding="utf-8"?>
<!-- Generator: Adobe Illustrator 22.1.0, SVG Export Plug-In . SVG Version: 6.00 Build 0)  -->
<svg version="1.1" id="Layer_1" xmlns="http://www.w3.org/2000/svg" xmlns:xlink="http://www.w3.org/1999/xlink" x="0px" y="0px"
	 viewBox="0 0 14 12" style="enable-background:new 0 0 14 12;" xml:space="preserve">
<style type="text/css">
	.st0{fill:#9E9E9E;}
</style>
<g>
	<path class="st0" d="M10.6,12H2.5c-1.1,0-1.8-0.8-1.8-1.9V2.9C0.7,1.9,1.6,1,2.8,1h7.5c0.3,0,0.5,0.2,0.5,0.5S10.5,2,10.2,2H2.8
		C2.2,2,1.7,2.4,1.7,2.9v7.2c0,0.3,0.1,0.9,0.8,0.9h8.1c0.6,0,1.1-0.4,1.1-0.9V3.7c0-0.3,0.2-0.5,0.5-0.5s0.5,0.2,0.5,0.5v6.4
		C12.7,11.1,11.8,12,10.6,12z"/>
	<path class="st0" d="M6.8,8.1c-0.5,0-0.7-0.2-0.9-0.3C5.1,6.9,6.1,5,6.7,4.4l3.8-3.8c0.3-0.3,0.6-0.4,0.9-0.4c0,0,0,0,0,0
		c0.4,0,0.7,0.1,0.9,0.4l0.7,0.7c0.5,0.5,0.5,1.4,0,1.9L9.3,7C8.8,7.5,7.6,8.1,6.8,8.1z M11.5,1.2c-0.1,0-0.2,0-0.2,0.1L7.4,5.1
		C6.9,5.6,6.5,6.9,6.7,7.1c0.2,0.2,1.4-0.2,1.9-0.7l3.8-3.8c0.1-0.1,0.1-0.4,0-0.5l-0.7-0.7c0,0,0,0,0,0C11.6,1.2,11.5,1.2,11.5,1.2
		L11.5,1.2z"/>
	<path class="st0" d="M6,8.2c-0.1,0-0.3,0-0.4-0.1c-0.2-0.2-0.2-0.5,0-0.7l0.3-0.3c0.2-0.2,0.5-0.2,0.7,0c0.2,0.2,0.2,0.5,0,0.7
		L6.4,8.1C6.3,8.2,6.1,8.2,6,8.2z"/>
</g>
</svg>
